<svg id="Capa_1" enable-background="new 0 0 512 512" height="512" viewBox="0 0 512 512" width="512" xmlns="http://www.w3.org/2000/svg"><g><path d="m241 482h-29.476v30h44.476l15-41.357-15-41.357h-15z" fill="#83a9c5"/><path d="m300.476 512v-30h-29.476v-52.714h-15v82.714z" fill="#7897b5"/><g><path d="m32.462 52.014v389.96h223.538l44.476-187.609-44.476-202.351z" fill="#f4f2f1"/><path d="m256 52.014h223.8v389.96h-223.8z" fill="#ece8e7"/></g><g><g><path d="m95.151 118.774h33.303v30h-33.303z" fill="#ffff6e"/></g><g><path d="m95.151 178.774h33.303v30h-33.303z" fill="#fc6284"/></g><g><path d="m95.151 238.774h33.303v30h-33.303z" fill="#47b8f8"/></g><g><path d="m194.126 369.564h-98.975v-30h81.282l20.489-37.057 26.254 14.515z" fill="#ded6d4"/></g></g><path d="m0 0v67.573h256l28.667-33.787-28.667-33.786z" fill="#fc0"/><path d="m181.467 249.178c0 50.589 30.747 94.128 74.533 112.923l30.237-20.767-30.237-53.45c-8.523-10.611-13.638-24.069-13.638-38.706s5.116-28.096 13.638-38.707l15.242-48.806-15.242-25.411c-43.786 18.796-74.533 62.334-74.533 112.924z" fill="#47b8f8"/><path d="m256 0h256v67.573h-256z" fill="#ffaf00"/><path d="m304.288 187.251 11.93-25.45-11.93-35.445c-17.134 0-33.458 3.532-48.288 9.898v74.217c11.359-14.142 28.779-23.22 48.288-23.22z" fill="#3494dd"/><path d="m304.288 371.998c40.431 0 76.358-19.641 98.752-49.879l-12.486-32.88-35.96-4.014c-11.25 15.654-29.601 25.878-50.305 25.878-19.509 0-36.929-9.077-48.288-23.22v74.217c14.829 6.366 31.153 9.898 48.287 9.898z" fill="#3494dd"/><path d="m304.288 126.357v60.895c34.146 0 61.926 27.78 61.926 61.926 0 13.441-4.318 25.885-11.621 36.048l48.447 36.894c15.116-20.411 24.069-45.649 24.069-72.941 0-67.725-55.098-122.822-122.821-122.822z" fill="#d9438a"/></g></svg>