<svg id="bold" enable-background="new 0 0 32 32" height="512" viewBox="0 0 32 32" width="512" xmlns="http://www.w3.org/2000/svg"><path d="m26 32h-20c-3.314 0-6-2.686-6-6v-20c0-3.314 2.686-6 6-6h20c3.314 0 6 2.686 6 6v20c0 3.314-2.686 6-6 6z" fill="#f5e6fe"/><g fill="#be63f9"><path d="m18.667 22.667h-1.333v-1.333h-2.667v1.333h-1.333c-.368 0-.667.299-.667.667s.298.666.666.666h5.333c.368 0 .667-.299.667-.667s-.298-.666-.666-.666z"/><path d="m22.833 14.333h-.167v5.667h-13.333v-8h5.667v-1.333h-5.833c-.64 0-1.167.526-1.167 1.166v8.333c0 .64.527 1.167 1.167 1.167h13.667c.64 0 1.167-.527 1.167-1.167v-6.173c-.341.214-.741.34-1.168.34z"/><circle cx="15.333" cy="16" r="1.333"/><path d="m18 19.833v.167h-5.333v-.167c0-1.013.82-1.833 1.833-1.833h1.667c1.013 0 1.833.82 1.833 1.833z"/></g><path d="m22.833 8h-5.667c-.643 0-1.166.523-1.166 1.167v3c0 .643.523 1.167 1.167 1.167h.833v1.5c0 .206.127.391.319.466.059.023.12.034.181.034.137 0 .272-.057.368-.162l1.685-1.838h2.28c.643 0 1.167-.523 1.167-1.167v-3c0-.644-.523-1.167-1.167-1.167zm-4.5 3.167c-.276 0-.5-.224-.5-.5s.224-.5.5-.5.5.224.5.5-.224.5-.5.5zm1.667 0c-.276 0-.5-.224-.5-.5s.224-.5.5-.5.5.224.5.5-.224.5-.5.5zm1.667 0c-.276 0-.5-.224-.5-.5s.224-.5.5-.5.5.224.5.5-.224.5-.5.5z" fill="#d9a4fc"/></svg>