<svg height="512" viewBox="0 0 55 59" width="512" xmlns="http://www.w3.org/2000/svg"><g id="Page-1" fill="none" fill-rule="evenodd"><g id="030---Listen-to-Music"><path id="Path" d="m42.14 11.35c-3.8213338-2.78063905-8.4143087-4.30114444-13.14-4.35-8.05 0-15.24 4.6-20.01 11.17l-2.02 3.18c-2.55000796 4.4652858-3.91657666 9.5081653-3.97 14.65 0 14.36 11.64 23 26 23s26-8.64 26-23c-.1013863-6.8512078-2.4756984-13.4746593-6.75-18.83z" fill="#f0c419"/><path id="Path" d="m12 34c-.4279035-.0002229-.8082467-.2726784-.9461359-.6777562-.1378891-.4050778-.0027638-.8529997.3361359-1.1142438 3.1717465-2.5141323 7.5280971-2.9203591 11.11-1.036.479107.2761424.6436424.888393.3675 1.3675s-.888393.6436424-1.3675.3675c-2.8823849-1.4818348-6.3658752-1.1354427-8.9.885-.1715167.1337371-.382509.2068811-.6.208z" fill="#3f5c6c"/><path id="Path" d="m46 34c-.2202328.00066-.4343207-.0725806-.608-.208-2.5330606-2.0183338-6.0139099-2.3646577-8.895-.885-.3099279.1786328-.6916125.1783517-1.001277-.0007373s-.5002634-.5097782-.5-.8675.1913491-.6881299.501277-.8667627c3.5817511-1.883393 7.9372659-1.4772077 11.109 1.036.3383259.2607929.4736363.7076966.336792 1.1123582-.1368443.4046617-.5156226.6777161-.942792.6796418z" fill="#3f5c6c"/><g fill="#f29c1f"><path id="Path" d="m11 25.991c-.1214915.0001657-.2419262-.0225643-.355-.067-.5092034-.1917686-.76855186-.7582284-.581-1.269.45-1.227 2.325-3.317 6.159-2.445.3555595.0719976.6442409.330912.7543566.6765719.1101156.3456598.0243933.7238467-.224002.9882441s-.6205015.3735332-.9723546.285184c-3-.678-3.766 1.006-3.846 1.2-.1549016.380453-.5242236.629696-.935.631z"/><path id="Path" d="m47 26c-.4145083-.0000433-.7860205-.255806-.934-.643-.083-.2-.856-1.873-3.845-1.2-.3518531.0883492-.7239593-.0207866-.9723546-.285184s-.3341176-.6425843-.224002-.9882441c.1101157-.3456599.3987971-.6045743.7543566-.6765719 3.834-.873 5.709 1.218 6.159 2.445.1139629.3070103.0703833.6503663-.1166638.9191717-.187047.2688053-.4938567.4289938-.8213362.4288283z"/><path id="Path" d="m29 50c-7.73 0-8.969-5.746-8.98-5.8-.08744-.5317506.2622052-1.0371542.7906321-1.1428396s1.0455623.2263622 1.1693679.7508396c.037.164.98 4.2 7.02 4.2s6.983-4.032 7.021-4.2c.1213886-.5291594.6428122-.8648051 1.174741-.7561928s.880032.6218031.784259 1.1561928c-.011.046-1.25 5.792-8.98 5.792z"/><path id="Path" d="m19 47c-.3212672-.0002439-.6228543-.1548257-.8106349-.4155001s-.2388857-.5956946-.1373651-.9004999c.7063346-2.1493458 2.6863757-3.623572 4.948-3.684.5522847-.0016568 1.0013431.4447153 1.0029999.997.0016569.5522847-.4447152 1.0013431-.9969999 1.003-1.4022404.0596613-2.6205939.9823908-3.058 2.316-.1359555.4081936-.5177607.6836733-.948.684z"/><path id="Path" d="m39 47c-.4302393-.0003267-.8120445-.2758064-.948-.684-.4371699-1.3346238-1.6568101-2.2577239-3.06-2.316-.5522847-.0022092-.9982091-.4517153-.9959999-1.004.0022091-.5522847.4517152-.9982091 1.0039999-.996 2.2616243.060428 4.2416654 1.5346542 4.948 3.684.1015206.3048053.0504155.6398255-.1373651.9004999s-.4893677.4152562-.8106349.4155001z"/></g><path id="Path" d="m21.3.482c-.4420102-.3769027-1.0254056-.54426427-1.6-.459l-11 1.693c-.979447.14383087-1.70403411.98605683-1.7 1.976v10.983c-.7574962-.4456605-1.62113765-.6788437-2.5-.675-2.34434976-.1298491-4.35409879 1.6565945-4.5 4 .14590121 2.3434055 2.15565024 4.1298491 4.5 4 2.34434976.1298491 4.35409879-1.6565945 4.5-4v-10.142l11-1.692v6.509c-.7574962-.4456605-1.6211376-.6788437-2.5-.675-2.3443498-.1298491-4.3540988 1.6565945-4.5 4 .1459012 2.3434055 2.1556502 4.1298491 4.5 4 2.3443498.1298491 4.3540988-1.6565945 4.5-4v-14c-.0005457-.58392485-.2562551-1.13844894-.7-1.518z" fill="#955ba5"/><path id="Path" d="m54.269.454c-.4629535-.3813416-1.0730904-.533784-1.661-.415l-3 .6c-.9333924.18933737-1.605181 1.00860197-1.608 1.961v8.075c-.7574962-.4456605-1.6211376-.67884373-2.5-.675-2.3443498-.1298491-4.3540988 1.6565945-4.5 4 .1459012 2.3434055 2.1556502 4.1298491 4.5 4 2.3443498.1298491 4.3540988-1.6565945 4.5-4v-7.18l3.393-.679c.9344837-.18727724 1.6069964-1.00793517 1.607-1.961v-2.18c.0000462-.59877736-.2681913-1.16607576-.731-1.546z" fill="#955ba5"/></g></g></svg>