<svg id="Flat" height="512" viewBox="0 0 64 64" width="512" xmlns="http://www.w3.org/2000/svg"><path d="m58.25 40.625v-37a2 2 0 0 0 -2-2h-48.5a2 2 0 0 0 -2 2v37" fill="#c9efff"/><path d="m58.25 41.375a.75.75 0 0 1 -.75-.75v-37a1.2511 1.2511 0 0 0 -1.25-1.25h-48.5a1.2511 1.2511 0 0 0 -1.25 1.25v37a.75.75 0 0 1 -1.5 0v-37a2.7528 2.7528 0 0 1 2.75-2.75h48.5a2.7528 2.7528 0 0 1 2.75 2.75v37a.75.75 0 0 1 -.75.75z" fill="#7e849b"/><path d="m38 51.625h-37v5a2 2 0 0 0 2 2h58a2 2 0 0 0 2-2v-5z" fill="#696e82"/><path d="m27 51.625 2 4h6l2-4" fill="#5b6172"/><path d="m59 39.625h-54l-4 12h62z" fill="#7e849b"/><g fill="#5b6172"><path d="m12 44.375h-2a.75.75 0 0 1 0-1.5h2a.75.75 0 0 1 0 1.5z"/><path d="m18 44.375h-2a.75.75 0 0 1 0-1.5h2a.75.75 0 0 1 0 1.5z"/><path d="m24 44.375h-2a.75.75 0 0 1 0-1.5h2a.75.75 0 0 1 0 1.5z"/><path d="m30 44.375h-2a.75.75 0 0 1 0-1.5h2a.75.75 0 0 1 0 1.5z"/><path d="m36 44.375h-2a.75.75 0 0 1 0-1.5h2a.75.75 0 0 1 0 1.5z"/><path d="m42 44.375h-2a.75.75 0 0 1 0-1.5h2a.75.75 0 0 1 0 1.5z"/><path d="m48 44.375h-2a.75.75 0 0 1 0-1.5h2a.75.75 0 0 1 0 1.5z"/><path d="m54 44.375h-2a.75.75 0 0 1 0-1.5h2a.75.75 0 0 1 0 1.5z"/><path d="m40 48.375h-16a.75.75 0 0 1 0-1.5h16a.75.75 0 0 1 0 1.5z"/></g><path d="m44 39.625h-24v-2.1085a8.1741 8.1741 0 0 1 5.5892-7.7546l3.4108-1.1369h6l3.4108 1.1369a8.1741 8.1741 0 0 1 5.5892 7.7546z" fill="#64a0fa"/><path d="m22 39.5165a8.1741 8.1741 0 0 1 5.5892-7.7546l3.4108-1.1369 2-2h-4l-3.4108 1.1369a8.1741 8.1741 0 0 0 -5.5892 7.7546v2.1085h2z" fill="#7ab4ff"/><path d="m29 24.625h6a0 0 0 0 1 0 0v5a3 3 0 0 1 -3 3 3 3 0 0 1 -3-3v-5a0 0 0 0 1 0 0z" fill="#f0be97"/><path d="m33 26.625-8.5-9.7812a7.3581 7.3581 0 0 1 -.4594-8.78l.9594-1.4388h8a10 10 0 0 1 10 10 10 10 0 0 1 -10 10z" fill="#cf8e4a"/><path d="m26.5 16.8437a7.3581 7.3581 0 0 1 -.4594-8.78l.9594-1.4387h-2l-.9594 1.439a7.3583 7.3583 0 0 0 .4594 8.78l8.5 9.781a10.0385 10.0385 0 0 0 1.8456-.1772z" fill="#d99e54"/><path d="m32 27.625a7.5 7.5 0 0 1 -7.5-7.5v-3.2812a13.9606 13.9606 0 0 0 9.9324-4.15l.0676-.0688.0259.1311a5.07 5.07 0 0 0 4.9741 4.0877v3.2812a7.5 7.5 0 0 1 -7.5 7.5z" fill="#ffd7aa"/><circle cx="35.5" cy="19.625" fill="#5b6172" r="1"/><circle cx="28.5" cy="19.625" fill="#5b6172" r="1"/><path d="m48 10.625v10a2 2 0 0 0 2 2h2v4l4-4h5a2 2 0 0 0 2-2v-10a2 2 0 0 0 -2-2h-11a2 2 0 0 0 -2 2z" fill="#f8faff"/><path d="m58.5 14.375h-6a.75.75 0 0 1 0-1.5h6a.75.75 0 0 1 0 1.5z" fill="#696e82"/><path d="m58.5 18.375h-6a.75.75 0 0 1 0-1.5h6a.75.75 0 0 1 0 1.5z" fill="#696e82"/><path d="m57.3359 50.4024a2.0013 2.0013 0 0 0 -2.3359 1.9726v-3a2 2 0 0 0 -4 0v-2a2 2 0 0 0 -4 0v2.1071a2.0746 2.0746 0 0 0 -1.6641-2.08 2.0014 2.0014 0 0 0 -2.3359 1.9729v7l-.6312-.9773a2.1406 2.1406 0 0 0 -3.6568 2.2233l3.288 5.754h15v-.0009a18.94 18.94 0 0 0 2-8.47v-2.4221a2.0744 2.0744 0 0 0 -1.6641-2.0796z" fill="#ffd7aa"/><path d="m25.1177 55.243a2.1405 2.1405 0 0 0 -3.4865.1547l-.6312.9773v-7a2.0014 2.0014 0 0 0 -2.3359-1.9727 2.0746 2.0746 0 0 0 -1.6641 2.0798v-2.1071a2 2 0 0 0 -4 0v2a2 2 0 0 0 -4 0v3a2.0013 2.0013 0 0 0 -2.3359-1.9726 2.0744 2.0744 0 0 0 -1.6641 2.0796v2.4219a18.94 18.94 0 0 0 2 8.47v.0009h15l3.288-5.754a2.1407 2.1407 0 0 0 -.1703-2.3778z" fill="#ffd7aa"/></svg>