<svg id="Layer_3" height="512" viewBox="0 0 64 64" width="512" xmlns="http://www.w3.org/2000/svg" data-name="Layer 3"><rect fill="#78a0d4" height="46" rx="2" width="60" x="2" y="16"/><path d="m56 55v-39h-52a2 2 0 0 0 -2 2v37z" fill="#8cb3dd"/><path d="m8 22h48v20h-48z" fill="#c8cded"/><path d="m51 35v-13h-43v15h41a2 2 0 0 0 2-2z" fill="#e2e7f6"/><path d="m32 28-9 9v-7h-7l6.368-6.368a2.947 2.947 0 0 0 .44.56 2.98 2.98 0 0 0 2.485.844 2.979 2.979 0 0 0 1.73 1.973 2.93 2.93 0 0 0 1.449.208 3.589 3.589 0 0 1 2.109.419 2.929 2.929 0 0 0 1.419.364z" fill="#3b5892"/><path d="m32 28 9 9v-7h7l-6.368-6.368a2.947 2.947 0 0 1 -.44.56 2.98 2.98 0 0 1 -2.485.844 2.979 2.979 0 0 1 -1.73 1.973 2.93 2.93 0 0 1 -1.449.208 3.589 3.589 0 0 0 -2.109.419 2.929 2.929 0 0 1 -1.419.364z" fill="#3b5892"/><path d="m45 15a2.929 2.929 0 0 0 -.363-1.417 3.592 3.592 0 0 1 -.419-2.107 2.924 2.924 0 0 0 -.207-1.448 2.981 2.981 0 0 0 -1.975-1.728 2.968 2.968 0 0 0 -3.328-3.332 2.983 2.983 0 0 0 -1.731-1.973 2.93 2.93 0 0 0 -1.449-.208 3.589 3.589 0 0 1 -2.109-.419 2.948 2.948 0 0 0 -2.836 0 3.592 3.592 0 0 1 -2.107.419 2.924 2.924 0 0 0 -1.448.207 2.981 2.981 0 0 0 -1.728 1.97 2.968 2.968 0 0 0 -3.332 3.328 2.983 2.983 0 0 0 -1.973 1.731 2.93 2.93 0 0 0 -.208 1.449 3.582 3.582 0 0 1 -.42 2.109 2.951 2.951 0 0 0 0 2.836 3.592 3.592 0 0 1 .419 2.107 2.924 2.924 0 0 0 .207 1.448 2.981 2.981 0 0 0 1.971 1.728 2.968 2.968 0 0 0 3.329 3.332 2.979 2.979 0 0 0 1.73 1.973 2.93 2.93 0 0 0 1.449.208 3.589 3.589 0 0 1 2.109.419 2.948 2.948 0 0 0 2.836 0 3.592 3.592 0 0 1 2.107-.419 2.924 2.924 0 0 0 1.448-.207 2.981 2.981 0 0 0 1.728-1.97 2.968 2.968 0 0 0 3.332-3.329 2.979 2.979 0 0 0 1.973-1.73 2.933 2.933 0 0 0 .208-1.45 3.587 3.587 0 0 1 .419-2.108 2.929 2.929 0 0 0 .368-1.419z" fill="#f0ae42"/><circle cx="32" cy="15" fill="#f9d266" r="8"/><path d="m32 7a7.995 7.995 0 0 0 -6.565 12.565 7.995 7.995 0 0 0 11.13-11.13 7.96 7.96 0 0 0 -4.565-1.435z" fill="#fce797"/><g fill="#e2e7f6"><path d="m7 45h24v2h-24z"/><path d="m7 49h24v2h-24z"/><path d="m7 53h24v2h-24z"/><path d="m33 45h24v2h-24z"/><path d="m33 49h24v2h-24z"/><path d="m33 53h24v2h-24z"/></g></svg>