<?xml version="1.0" encoding="iso-8859-1"?>
<!-- Generator: Adobe Illustrator 19.0.0, SVG Export Plug-In . SVG Version: 6.00 Build 0)  -->
<svg version="1.1" id="Capa_1" xmlns="http://www.w3.org/2000/svg" xmlns:xlink="http://www.w3.org/1999/xlink" x="0px" y="0px"
	 viewBox="0 0 512.002 512.002" style="enable-background:new 0 0 512.002 512.002;" xml:space="preserve">
<path style="fill:#FFB06A;" d="M391.743,0.001c-17.844,0-32.31,14.431-32.31,32.233H4c-2.461,0-4.308-2.195-3.957-4.629
	c2.25-15.609,15.71-27.604,31.979-27.604H391.743z"/>
<path style="fill:#FFE9B5;" d="M425.756,32.235v479.766H96.645c-17.853,0-32.314-14.433-32.314-32.234V32.235
	C64.33,14.434,49.869,0.001,32.026,0.001h361.426C411.295,0.001,425.756,14.434,425.756,32.235z"/>
<path style="fill:#FFD467;" d="M393.452,0.001h-30.923c17.842,0,32.304,14.433,32.304,32.234v479.766h30.923V32.235
	C425.756,14.434,411.295,0.001,393.452,0.001z"/>
<g>
	<path style="fill:#FFB06A;" d="M374.531,90.484H112.894c-4.145,0-7.504-3.357-7.504-7.5s3.359-7.5,7.504-7.5h261.637
		c4.145,0,7.504,3.357,7.504,7.5S378.676,90.484,374.531,90.484z"/>
	<path style="fill:#FFB06A;" d="M374.531,141.245H112.894c-4.145,0-7.504-3.357-7.504-7.5s3.359-7.5,7.504-7.5h261.637
		c4.145,0,7.504,3.357,7.504,7.5S378.676,141.245,374.531,141.245z"/>
	<path style="fill:#FFB06A;" d="M374.531,192.006H112.894c-4.145,0-7.504-3.357-7.504-7.5s3.359-7.5,7.504-7.5h261.637
		c4.145,0,7.504,3.357,7.504,7.5S378.676,192.006,374.531,192.006z"/>
	<path style="fill:#FFB06A;" d="M374.531,242.767H112.894c-4.145,0-7.504-3.357-7.504-7.5s3.359-7.5,7.504-7.5h261.637
		c4.145,0,7.504,3.357,7.504,7.5S378.676,242.767,374.531,242.767z"/>
	<path style="fill:#FFB06A;" d="M374.531,293.527H112.894c-4.145,0-7.504-3.357-7.504-7.5s3.359-7.5,7.504-7.5h261.637
		c4.145,0,7.504,3.357,7.504,7.5S378.676,293.527,374.531,293.527z"/>
	<path style="fill:#FFB06A;" d="M374.531,344.288H112.894c-4.145,0-7.504-3.357-7.504-7.5s3.359-7.5,7.504-7.5h261.637
		c4.145,0,7.504,3.357,7.504,7.5S378.676,344.288,374.531,344.288z"/>
</g>
<path style="fill:#FFD65C;" d="M349.483,283.368c4.753,9.645,7.167,14.441,12.065,23.977c0.428,0.833,0.239,1.858-0.46,2.498
	c-25.495,23.602-49.862,48.178-73.255,73.864c-0.393,0.437-0.946,0.694-1.525,0.709c-20.907,0.54-41.758,1.797-62.606,3.427
	c-0.94,0.078-1.777-0.487-2.051-1.39c-6.078-20.397-11.675-40.881-16.826-61.53c-0.142-0.583-0.034-1.228,0.297-1.779
	c19.962-32.753,41.236-64.489,63.938-95.407c0.63-0.848,1.698-1.225,2.599-0.918c10.309,3.507,15.441,5.301,25.657,8.967
	c1.713,0.615,3.539-1.194,2.964-2.935c-3.07-9.255-6.033-18.554-8.883-27.879c-0.25-0.814,0.032-1.76,0.715-2.4
	c34.569-32.033,70.633-62.029,108.44-90.172c0.848-0.624,1.957-0.653,2.698-0.073c8.27,6.486,12.388,9.746,20.589,16.302
	c1.423,1.138,3.703-0.08,3.661-1.956c-0.238-10.686-0.295-16.049-0.285-26.814c0.001-1.202,1.025-2.277,2.267-2.381
	c26.823-2.072,53.582-3.314,80.483-3.703c1.457-0.012,2.407,1.353,1.898,2.714c-9.01,24.514-17.186,49.19-24.567,74.242
	c-0.326,1.131-1.514,1.805-2.64,1.496c-10.081-2.769-15.154-4.1-25.364-6.651c-1.792-0.448-3.356,1.484-2.501,3.088
	c4.929,9.245,7.414,13.854,12.422,23.045c0.449,0.822,0.276,1.856-0.418,2.516c-30.681,29.544-59.587,60.503-86.943,93.147
	c-0.535,0.647-1.401,0.917-2.199,0.685c-11.007-3.197-16.542-4.739-27.672-7.71C350.231,279.881,348.686,281.751,349.483,283.368z"
	/>
<g>
	<path style="fill:#FFB254;" d="M350.695,285.825c-0.438,0.516-0.89,1.042-1.314,1.548c-0.535,0.647-82.569,96.635-84.303,97.831
		c7.071-0.334,14.147-0.605,21.229-0.788c0.579-0.015,1.132-0.272,1.525-0.709c23.394-25.687,47.76-50.262,73.255-73.864
		c0.7-0.64,0.889-1.664,0.46-2.498C357.085,298.658,354.68,293.894,350.695,285.825z"/>
	<path style="fill:#FFB254;" d="M509.963,93.776c-10.195,0.148-20.37,0.419-30.536,0.81c-8.032,26.671-15.831,51.169-21.807,71.276
		c0.473-0.298,1.054-0.438,1.669-0.285c10.21,2.551,15.283,3.882,25.364,6.651c1.125,0.309,2.314-0.365,2.64-1.496
		c7.381-25.053,15.557-49.728,24.567-74.242C512.371,95.129,511.42,93.764,509.963,93.776z"/>
	<path style="fill:#FFB254;" d="M456.789,168.665c-22.273,30.708-73.216,79.552-102.019,112.43
		c9.338,2.504,14.838,4.046,24.881,6.963c0.798,0.232,1.664-0.038,2.199-0.685c27.356-32.644,56.262-63.603,86.943-93.147
		c0.695-0.66,0.867-1.694,0.418-2.516C464.203,182.519,461.718,177.91,456.789,168.665z"/>
</g>
<path style="fill:#FFB06A;" d="M186.721,451.142c-1.32,0-2.658-0.348-3.87-1.079c-3.548-2.141-4.689-6.75-2.548-10.297
	C243.19,335.607,321.474,242.118,412.98,161.895c3.114-2.731,7.857-2.421,10.589,0.691c2.734,3.114,2.423,7.853-0.693,10.584
	c-90.344,79.206-167.634,171.509-229.723,274.346C191.743,449.85,189.263,451.142,186.721,451.142z"/>
<path style="fill:#FFD467;" d="M96.64,512.001c16.641,0,30.343-12.55,32.116-28.68c0.222-2.023,1.933-3.553,3.969-3.553h321.067
	c2.461,0,4.308,2.195,3.957,4.629c-2.249,15.609-15.71,27.604-31.979,27.604H96.64z"/>
<path style="fill:#FFB06A;" d="M427.158,479.769c0,17.801-14.466,32.232-32.31,32.232h30.923c16.269,0,29.729-11.995,31.979-27.604
	c0.351-2.434-1.497-4.629-3.957-4.629h-26.635V479.769z"/>
<g>
</g>
<g>
</g>
<g>
</g>
<g>
</g>
<g>
</g>
<g>
</g>
<g>
</g>
<g>
</g>
<g>
</g>
<g>
</g>
<g>
</g>
<g>
</g>
<g>
</g>
<g>
</g>
<g>
</g>
</svg>
