<svg id="Capa_1" enable-background="new 0 0 512 512" height="512" viewBox="0 0 512 512" width="512" xmlns="http://www.w3.org/2000/svg"><g><path d="m307.78 469.823-10 7.5 10 7.5v2.9c0 11.38-9.23 20.6-20.6 20.6h-62.36c-11.37 0-20.6-9.22-20.6-20.6v-2.9l10-7.5-10-7.5v-33.63h103.56z" fill="#d8ecfe"/><path d="m254.48 508.323h-29.66c-11.37 0-20.6-9.22-20.6-20.6v-2.9l10-7.5-10-7.5v-33.64h30.01v51.54c0 11.26 9.04 20.42 20.25 20.6z" fill="#b3dafe"/><path d="m281.885 306.497c0 14.303-11.582 25.895-25.885 25.895v85.335h-51.781v-25.163c0-9.922-5.661-19.024-14.633-23.275-52.561-24.905-88.928-78.426-88.928-140.449v-.18h51.781v.17c0 14.293 11.592 25.895 25.885 25.895 14.303 0 25.895-11.602 25.895-25.895v-.17h51.781v51.951c14.303.001 25.885 11.593 25.885 25.886z" fill="#aee69c"/><path d="m224.223 392.565v25.163h-20.004v-25.163c0-9.922-5.661-19.024-14.633-23.275-52.561-24.905-88.928-78.426-88.928-140.449v-.18h20.004v.18c0 62.023 36.368 115.544 88.928 140.449 8.972 4.251 14.633 13.353 14.633 23.275z" fill="#89daa4"/><path d="m411.342 228.661v.17c0 62.003-36.328 115.514-88.868 140.429-8.992 4.261-14.693 13.353-14.693 23.305v25.163h-51.781v-85.335c14.303 0 25.885-11.592 25.885-25.895 0-14.293-11.582-25.885-25.885-25.885v-51.951h51.781c.09-14.223 11.652-25.725 25.895-25.725 14.233 0 25.795 11.502 25.885 25.725h51.781z" fill="#8ac9fe"/><path d="m411.342 228.661h-51.781c-.09-14.223-11.652-25.725-25.885-25.725-14.243 0-25.805 11.502-25.895 25.725h-51.781v-51.611c-14.303 0-25.885-11.592-25.885-25.895s11.582-25.885 25.885-25.885v-51.781c85.738 0 155.252 69.455 155.342 155.172z" fill="#ffe177"/><path d="m230.115 151.155c0 14.303 11.582 25.895 25.885 25.895v51.611h-51.781v.17c0 14.293-11.592 25.895-25.895 25.895-14.293 0-25.885-11.602-25.885-25.895v-.17h-51.781c.09-85.957 69.384-155.172 155.342-155.172v51.781c-14.303 0-25.885 11.583-25.885 25.885z" fill="#fe646f"/><path d="m256 73.489v1.27c-76.456 9.752-135.258 74.725-135.338 153.902h-20.004c.09-85.957 69.384-155.172 155.342-155.172z" fill="#fd4755"/><g><path d="m204.22 469.823h103.56v15h-103.56z" fill="#eaf6ff"/></g><g><path d="m204.22 469.823h30.01v15h-30.01z" fill="#d8ecfe"/></g><g><g><path d="m256 49.749c-4.143 0-7.502-3.359-7.502-7.502v-31.068c0-4.143 3.358-7.502 7.502-7.502s7.502 3.359 7.502 7.502v31.069c0 4.142-3.359 7.501-7.502 7.501z" fill="#ffe177"/></g><g><path d="m364.708 78.88c-1.273 0-2.562-.324-3.744-1.007-3.588-2.071-4.817-6.659-2.746-10.247l15.534-26.906c2.071-3.588 6.657-4.819 10.247-2.746 3.588 2.071 4.817 6.659 2.746 10.247l-15.534 26.906c-1.389 2.408-3.911 3.753-6.503 3.753z" fill="#ffe177"/></g><g><g><path d="m444.306 158.465c-2.592 0-5.114-1.345-6.503-3.752-2.072-3.588-.842-8.176 2.746-10.247l26.906-15.534c3.586-2.071 8.177-.843 10.247 2.746 2.072 3.588.842 8.176-2.746 10.247l-26.906 15.534c-1.181.681-2.471 1.006-3.744 1.006z" fill="#ffe177"/></g><g><path d="m40.801 391.429c-2.592 0-5.113-1.345-6.503-3.752-2.072-3.588-.842-8.176 2.746-10.247l26.906-15.534c3.586-2.071 8.175-.843 10.247 2.746 2.072 3.588.842 8.176-2.746 10.247l-26.906 15.534c-1.181.681-2.471 1.006-3.744 1.006z" fill="#ffe177"/></g></g><g><path d="m147.292 78.88c-2.592 0-5.114-1.345-6.503-3.752l-15.534-26.906c-2.072-3.588-.842-8.176 2.746-10.247 3.586-2.073 8.176-.843 10.247 2.746l15.534 26.906c2.072 3.588.842 8.176-2.746 10.247-1.181.682-2.471 1.006-3.744 1.006z" fill="#ffe177"/></g><g><g><path d="m67.694 158.465c-1.273 0-2.562-.324-3.744-1.007l-26.906-15.534c-3.588-2.071-4.817-6.659-2.746-10.247 2.071-3.589 6.657-4.818 10.247-2.746l26.906 15.534c3.588 2.071 4.817 6.659 2.746 10.247-1.389 2.407-3.911 3.753-6.503 3.753z" fill="#ffe177"/></g><g><path d="m471.199 391.429c-1.273 0-2.563-.324-3.744-1.007l-26.906-15.534c-3.588-2.072-4.817-6.66-2.746-10.247 2.071-3.589 6.661-4.817 10.247-2.746l26.906 15.534c3.588 2.072 4.817 6.66 2.746 10.247-1.389 2.407-3.911 3.753-6.503 3.753z" fill="#ffe177"/></g></g><g><g><path d="m38.57 267.178h-31.068c-4.143 0-7.502-3.359-7.502-7.502s3.358-7.502 7.502-7.502h31.068c4.143 0 7.502 3.359 7.502 7.502s-3.358 7.502-7.502 7.502z" fill="#ffe177"/></g><g><path d="m504.498 267.178h-31.068c-4.143 0-7.502-3.359-7.502-7.502s3.358-7.502 7.502-7.502h31.069c4.143 0 7.502 3.359 7.502 7.502s-3.359 7.502-7.503 7.502z" fill="#ffe177"/></g></g></g><path d="m318.137 446.089h-124.274c-8.579 0-15.534-6.955-15.534-15.534 0-8.579 6.955-15.534 15.534-15.534h124.275c8.579 0 15.534 6.955 15.534 15.534 0 8.579-6.955 15.534-15.535 15.534z" fill="#eaf6ff"/><path d="m223.873 446.086h-30.006c-8.582 0-15.543-6.951-15.543-15.533 0-4.291 1.74-8.172 4.551-10.982s6.701-4.551 10.992-4.551h30.006c-4.291 0-8.182 1.74-10.992 4.551s-4.551 6.691-4.551 10.982c0 8.582 6.962 15.533 15.543 15.533z" fill="#d8ecfe"/></g></svg>