<svg id="Capa_1" enable-background="new 0 0 512 512" height="512" viewBox="0 0 512 512" width="512" xmlns="http://www.w3.org/2000/svg"><g><path d="m313.762 343.221h-119.996c-46.458 0-84.12 37.662-84.12 84.12v14.214l15.453 30.573c0 13.486 10.933 24.419 24.419 24.419h96.089l7.624 15.453h1.066l11.928-15.455h91.785c13.486 0 24.419-10.933 24.419-24.419l15.453-30.573v-14.213c-.001-46.458-37.662-84.119-84.12-84.119z" fill="#6ec17d"/><path d="m297.361 353.677c.018.224.018.448.018.673 0 18.582-19.523 33.648-43.611 33.648s-43.62-15.066-43.62-33.648c0-.224 0-.448.018-.673" fill="#f1b986"/><path d="m285.933 397.178h24.701v81.754h-24.701z" fill="#665e66" transform="matrix(.947 .32 -.32 .947 155.965 -72.445)"/><path d="m286.31 394.88h10.347v81.754h-10.347z" fill="#454045" transform="matrix(.947 .32 -.32 .947 154.871 -70.389)"/><path d="m135.823 427.34v60.245c0 13.485 10.941 24.415 24.426 24.415h-26.177c-13.495 0-24.425-10.93-24.425-24.415v-60.245c0-46.461 37.663-84.114 84.124-84.114h26.177c-46.462 0-84.125 37.653-84.125 84.114z" fill="#5ea570"/><path d="m166.967 441.554v23.791h44.401c23.12 0 41.863 18.743 41.863 41.863v4.79h-119.166c-13.486 0-24.419-10.933-24.419-24.419v-46.025z" fill="#f1d0a5"/><path d="m133.992 511.998h26.177c-13.448-.043-24.346-10.955-24.346-24.413v-46.031h-26.177v46.031c0 13.458 10.888 24.37 24.346 24.413z" fill="#f1b986"/><path d="m340.561 441.554v23.791h-44.401c-23.12 0-41.863 18.743-41.863 41.863v4.79h119.166c13.486 0 24.419-10.933 24.419-24.419v-46.025z" fill="#f1d0a5"/><path d="m340.561 441.25h24.095v24.095h-24.095z" fill="#f1b986"/><path d="m340.561 425.994h24.095v15.256h-24.095z" fill="#5ea570"/><path d="m296.163 465.342h19.388c-23.127 0-41.866 18.749-41.866 41.866v4.79h-19.388v-4.79c0-23.117 18.738-41.866 41.866-41.866z" fill="#f1b986"/><path d="m397.965 251.031h.202c17.341 0 31.392-14.063 31.392-31.392 0-17.341-14.051-31.403-31.392-31.403-.226 0-.451 0-.677.012h-287.453c-.226-.012-.451-.012-.677-.012-17.341 0-31.392 14.063-31.392 31.403 0 17.329 14.051 31.392 31.392 31.392h.202" fill="#f1b986"/><path d="m397.011 276.603c-2.122 41.331-35.201 74.224-76.542 76.182-44.473 2.102-88.946 2.102-133.408 0-41.341-1.957-74.42-34.851-76.542-76.182-.886-17.389-1.308-34.779-1.257-52.158.093-39.404 2.596-78.798 7.52-118.182 91.325-8.859 182.64-8.859 273.965 0 1.463 11.682 2.709 23.375 3.739 35.057 3.998 45.091 4.832 90.192 2.525 135.283z" fill="#f1d0a5"/><path d="m116.788 106.252c45.652-4.428 91.318-6.635 136.984-6.635-23.119 0-46.238 2.234-69.357 6.703-3.597 57.328-4.646 114.655-3.174 171.969.967 37.723 14.754 68.485 32.846 75.501-9.005-.245-18.024-.586-27.029-1.008-41.334-1.948-74.411-34.849-76.537-76.182-2.901-56.783-.817-113.565 6.267-170.348z" fill="#f1b986"/><path d="m253.763 308.359c-15.455 0-29.724-9.024-36.352-22.99-1.83-3.855-.188-8.463 3.667-10.293 3.852-1.828 8.463-.188 10.293 3.667 4.083 8.604 12.873 14.163 22.392 14.163 9.52 0 18.31-5.559 22.392-14.162 1.829-3.856 6.44-5.496 10.292-3.668 3.855 1.829 5.498 6.438 3.668 10.293-6.626 13.966-20.896 22.99-36.352 22.99z" fill="#da4a54"/><g fill="#454045"><ellipse cx="186.922" cy="229.216" rx="13.027" ry="19.412"/><ellipse cx="320.606" cy="229.216" rx="13.027" ry="19.412"/></g><path d="m394.487 141.32c-19.769 21.119-43.566 39.94-64.664 48.089-52.488 20.274-127.041 11.332-164.622-26.239 0 0-8.921 61.007-55.156 61.007l-.783.268c.093-39.404 2.596-78.798 7.52-118.182 91.325-8.859 182.64-8.859 273.965 0 1.463 11.682 2.71 23.374 3.74 35.057z" fill="#f1b986"/><path d="m329.825 153.477c-52.489 20.276-127.049 11.335-164.624-26.24 0 0-8.923 61.009-55.153 61.009l-20.16 6.78c-53.843-211.347 61-154.876 61-154.876 10.842-21.012 26.635-29.711 43.136-31.809 1.453-.179 2.906-.314 4.367-.404.117 0 .233-.009.35-.018 11.622-.619 23.388 1.74 33.845 5.103 3.641 1.175 7.13 2.466 10.394 3.802 13.138 5.372 22.707 11.407 24.716 12.699.26.179.395.269.395.269 11.819-15.641 23.091-29.792 35.485-29.792 5.085 0 8.6 1.946 10.959 5.058 8.941 11.721 1.596 39.907 1.004 42.122l-.027.099c.009-.018.018-.054.036-.099l.063-.161c1.587-4 19.344-47.019 51.189-47.019 2.009 0 3.811.188 5.417.547 23.738 5.246 5.157 46.768 3.112 51.162l-.054.126c-.054.108-.09.188-.108.224 1.013-1.291 40.768-51.763 58.435-28.608.009.018.009.018.018.027 17.819 23.487-51.332 109.732-103.795 129.999z" fill="#665e66"/><g fill="#454045"><path d="m433.602 23.451h-.009c-8.932-8.923-39.871 33.199-58.453 28.635l.135-.251c-.054.108-.09.188-.108.224 1.013-1.292 40.768-51.763 58.435-28.608z"/><path d="m372.217.547c-13.419-3.048-25.857 22.493-32.885 40.625-3.398 8.768-13.925 12.287-21.918 7.332l-1.92-1.19.018-.036.027-.099h.009l.063-.161c1.587-3.999 19.344-47.018 51.189-47.018 2.009 0 3.811.188 5.417.547z"/><path d="m194.021 8.34c-38.401 6.771-52.911 94.809-28.823 118.897 0 0-8.923 61.009-55.153 61.009l-20.16 6.78c-53.843-211.347 61-154.876 61-154.876 10.842-21.013 26.635-29.711 43.136-31.81z"/><path d="m314.535 5.058c-13.497-13.497-22.492 55.718-52.875 66.802s-33.226-3.085-33.226-3.085v-.009c14.958-5.533 27.585-23.021 39.647-38.984.009.009.009.009.009.009.368-.493.735-.977 1.103-1.462.457-.619.933-1.238 1.399-1.847 10.923-14.268 21.469-26.482 32.984-26.482 5.085 0 8.6 1.946 10.959 5.058z"/></g></g></svg>