<svg id="Capa_1" enable-background="new 0 0 512 512" height="512" viewBox="0 0 512 512" width="512" xmlns="http://www.w3.org/2000/svg"><g><g><path d="m267 22c-135.31 0-245 109.69-245 245 0 47.134 13.322 91.151 36.389 128.514l1-.284v-45.136c0-15.991 13.01-29 29-29h151.076v-54.772c0-1.832 1.489-3.321 3.32-3.321h44.94c1.831 0 3.321 1.49 3.321 3.321v61.361c0 1.721-.107 3.469-.32 5.195l-.138 1.122h210.7l1.708-1c5.86-20.999 9.004-43.131 9.004-66 0-135.31-109.69-245-245-245z" fill="#26a6fe"/><g fill="#fedf30"><path d="m318.663 139.667h2.717v-1.667c0-4.962 4.037-9 9-9h28.856c1.905 0 3.787-.499 5.444-1.441l24.854-14.155c1.361-.776 2.908-1.186 4.472-1.186.601 0 1.202.061 1.79.181 9.344 1.903 16.125 10.217 16.125 19.768v7.501h2.717c4.581 0 8.772 1.678 12.013 4.44v-13.86c0-33.137-26.863-60-60-60-33.137 0-60 26.863-60 60v13.859c3.24-2.762 7.431-4.44 12.012-4.44z"/><path d="m325.684 215.387h100.68v-40.602c-3.2 2.622-7.275 4.215-11.726 4.215h-5.634c-6.471 17.104-23.011 29.302-42.353 29.302s-35.883-12.198-42.354-29.302h-5.634c-4.581 0-8.772-1.677-12.012-4.439v42.866c0 .832.109 1.637.296 2.412 5.64-2.841 12.002-4.452 18.737-4.452z"/></g><g fill="#fed402"><path d="m318.663 139.667h2.717v-1.667c0-4.962 4.037-9 9-9h8.646c.552-26.98 18.906-49.573 43.799-56.529-5.148-1.438-10.568-2.224-16.175-2.224-33.137 0-60 26.863-60 60v13.859c3.241-2.761 7.432-4.439 12.013-4.439z"/><path d="m325.684 215.387h13.316v-16.548c-6.573-5.088-11.714-11.937-14.703-19.839h-5.634c-4.581 0-8.772-1.677-12.012-4.439v42.866c0 .832.109 1.637.296 2.412 5.64-2.841 12.002-4.452 18.737-4.452z"/></g><g><g><path d="m438.997 214.387h-113.314c-21.008 0-38.469 15.141-42.095 35.103v13.51h4.138c1.831 0 3.321 1.49 3.321 3.321v61.361c0 2.133-.178 4.242-.493 6.318h157.914v-110.142c-.001-5.231-4.241-9.471-9.471-9.471z" fill="#eaf6ff"/><path d="m336.592 214.387h-10.908c-21.008 0-38.469 15.141-42.095 35.103v13.51h4.138c1.831 0 3.321 1.49 3.321 3.321v61.361c0 2.133-.178 4.242-.493 6.318h22.567v-84.51c2.474-13.617 11.388-24.985 23.471-30.84v-4.263z" fill="#d8ecfe"/><path d="m485.697 334v-14.424c0-4.184-3.392-7.576-7.576-7.576h-60.736c-8.137 0-14.933 5.736-16.571 13.384-1.638-7.648-8.433-13.384-16.57-13.384h-60.669c-4.184 0-7.576 3.392-7.576 7.576v14.424z" fill="#fff"/><g><g><path d="m349.879 312h-26.303c-4.184 0-7.576 3.392-7.576 7.576v14.424h26.303v-14.424c0-4.184 3.392-7.576 7.576-7.576z" fill="#fff9e2"/></g></g><g><path d="m366.65 208.302c-6.246 0-12.2-1.272-17.617-3.569l-12.441 9.655v35.064c0 2.376 2.626 3.813 4.627 2.531l23.811-15.25c.988-.633 2.254-.633 3.242 0l23.811 15.25c2.001 1.281 4.627-.155 4.627-2.531v-35.064l-12.442-9.655c-5.418 2.297-11.372 3.569-17.618 3.569z" fill="#c4e2ff"/><path d="m366.65 208.302c-5.714 0-11.179-1.075-16.218-3.016v10.283c0 .786.323 1.538.895 2.078l13.356 12.644c1.104 1.045 2.831 1.045 3.935 0l13.356-12.644c.571-.541.895-1.292.895-2.078v-10.284c-5.039 1.942-10.504 3.017-16.219 3.017z" fill="#ffbd86"/><g><path d="m367.895 217.648c-.571-.541-.895-1.292-.895-2.078v-7.276c-.117.001-.232.008-.35.008-5.714 0-11.179-1.075-16.218-3.016v10.283c0 .786.323 1.538.895 2.078l13.356 12.644c1.104 1.045 2.831 1.045 3.935 0l6.316-5.979z" fill="#f6a96c"/></g><g fill="#f6a96c"><path d="m321.38 163.031v-24.364h-2.716c-10.801 0-19.556 8.755-19.556 19.556v2.22c0 10.8 8.755 19.556 19.556 19.556h6.028c-2.129-5.243-3.312-10.968-3.312-16.968z"/><path d="m414.638 138.668h-2.717v24.364c0 5.999-1.183 11.724-3.312 16.969h6.029c10.801 0 19.556-8.755 19.556-19.556v-2.22c0-10.802-8.756-19.557-19.556-19.557z"/></g><g><path d="m389.039 112.534c2.107-1.2 4.58-1.6 6.956-1.116 9.658 1.967 16.926 10.509 16.926 20.748v30.865c0 25.554-20.716 46.27-46.27 46.27-25.554 0-46.27-20.716-46.27-46.27v-25.031c0-5.523 4.477-10 10-10h28.856c1.735 0 3.441-.452 4.949-1.31z" fill="#fed2a4"/></g><g><path d="m340 163.031v-25.031c0-5.523 4.477-10 10-10h-19.62c-5.523 0-10 4.477-10 10v25.031c0 25.554 20.716 46.27 46.271 46.27 3.367 0 6.647-.369 9.81-1.052-20.841-4.5-36.461-23.03-36.461-45.218z" fill="#ffbd86"/></g><g><g><g><path d="m340.705 156.343c-4.143 0-7.5-3.358-7.5-7.5v-7.277c0-4.142 3.357-7.5 7.5-7.5s7.5 3.358 7.5 7.5v7.277c0 4.142-3.357 7.5-7.5 7.5z" fill="#d88a55"/></g><g><path d="m392.596 156.343c-4.143 0-7.5-3.358-7.5-7.5v-7.277c0-4.142 3.357-7.5 7.5-7.5s7.5 3.358 7.5 7.5v7.277c0 4.142-3.358 7.5-7.5 7.5z" fill="#d88a55"/></g></g><g><path d="m366.646 171.217c-1.706 0-3.42-.579-4.827-1.763l-6.805-5.73c-2.698-2.272-3.448-6.118-1.802-9.237l6.805-12.894c1.933-3.662 6.466-5.066 10.134-3.132 3.663 1.933 5.065 6.47 3.132 10.133l-3.984 7.549 2.183 1.838c3.168 2.668 3.574 7.399.905 10.568-1.484 1.761-3.605 2.668-5.741 2.668z" fill="#d88a55"/></g></g><g><path d="m368.035 197.569c-7.075 0-13.729-2.758-18.738-7.766-2.929-2.929-2.929-7.678 0-10.606 2.93-2.929 7.678-2.929 10.607 0 4.483 4.484 11.781 4.483 16.263 0 2.93-2.929 7.678-2.929 10.607 0s2.929 7.678 0 10.606c-5.008 5.009-11.663 7.766-18.739 7.766z" fill="#d88a55"/></g></g></g><path d="m469.329 12.184c-2.579 0-4.671 2.091-4.671 4.671v17.261h-3.249v-26.399c0-2.579-2.091-4.671-4.671-4.671s-4.671 2.091-4.671 4.671v26.399h-3.249v-29.445c0-2.579-2.091-4.671-4.671-4.671-2.579 0-4.671 2.091-4.671 4.671v29.445h-3.249v-22.135c0-2.579-2.091-4.671-4.671-4.671-2.579 0-4.671 2.091-4.671 4.671v22.135 16.491l-7.934-7.934c-2.202-2.202-5.773-2.202-7.976 0-2.202 2.203-2.202 5.773 0 7.976l22.917 22.916v90.435h30.664v-89.72c5.681-3.67 9.444-10.053 9.444-17.319v-40.106c0-2.58-2.091-4.671-4.671-4.671z" fill="#fed2a4"/><g><path d="m424.477 50.649c-1.128-1.128-1.669-2.615-1.642-4.094l-3.711-3.711c-2.083-2.083-5.465-2.42-7.737-.544-2.605 2.152-2.742 6.017-.411 8.349l22.917 22.916v90.435h13.5v-86.293c0-2.652-1.054-5.196-2.929-7.071z" fill="#ffbd86"/></g><path d="m468.017 163h-38.912c-2.066 0-3.742 1.675-3.742 3.742v48.646h13.634c4.67 0 8.47 3.8 8.47 8.47v31.058c14.189-5.317 24.292-18.998 24.292-35.043v-53.13c0-2.068-1.676-3.743-3.742-3.743z" fill="#eaf6ff"/></g><path d="m290.697 333c-1.464 11.37-7.559 21.841-16.937 28.719l-.408.299v78.604h160.596l6.87-1c29.049-29.249 50.779-65.776 62.178-106.622z" fill="#f6a96c"/><g><path d="m290.697 333c-1.464 11.37-7.559 21.841-16.937 28.719l-.408.299v78.604h29.004v-107.622z" fill="#ea9b58"/></g><g><path d="m274.352 440.622v-108.176c0-6.822-5.53-12.352-12.352-12.352h-173.611c-16.568 0-30 13.431-30 30v45.42c9.896 16.03 21.608 30.813 34.816 44.108l2.796 1z" fill="#c4e2ff"/><g><path d="m92.037 350.094c0-16.569 13.431-30 30-30h-33.648c-16.568 0-30 13.431-30 30v45.42c9.608 15.564 20.911 29.968 33.648 42.962z" fill="#b3dafe"/></g><path d="m317 440.622v-13.979c0-5.128-4.157-9.286-9.286-9.286h-74.445c-9.974 0-18.303 7.031-20.311 16.405-2.008-9.375-10.336-16.405-20.311-16.405h-74.362c-5.128 0-9.286 4.157-9.286 9.286v13.979z" fill="#fff"/><g><path d="m142.286 417.357h-24c-5.128 0-9.286 4.157-9.286 9.286v13.979h24v-13.979c0-5.128 4.157-9.286 9.286-9.286z" fill="#eaf6ff"/></g><g><path d="m170.53 312.948c-7.618 0-14.877-1.562-21.478-4.378l-14.85 11.523v42.376c0 2.871 3.174 4.608 5.592 3.059l28.776-18.43c1.194-.765 2.724-.765 3.918 0l28.776 18.43c2.418 1.549 5.592-.188 5.592-3.059v-42.376l-14.85-11.523c-6.599 2.816-13.858 4.378-21.476 4.378z" fill="#8ac9fe"/><g><path d="m151 320.094 10.242-7.948c-4.247-.728-8.333-1.93-12.19-3.575l-14.85 11.523v42.376c0 2.871 3.174 4.608 5.592 3.059l11.206-7.176z" fill="#60b7ff"/></g><path d="m170.53 312.948c-6.904 0-13.509-1.293-19.601-3.629v12.204c0 .95.391 1.859 1.081 2.512l16.142 15.28c1.334 1.263 3.422 1.263 4.756 0l16.142-15.28c.69-.653 1.081-1.562 1.081-2.512v-12.204c-6.092 2.336-12.697 3.629-19.601 3.629z" fill="#ffbd86"/><g><path d="m168.88 324.035c-.69-.653-1.081-1.562-1.081-2.512v-8.646c-5.916-.294-11.586-1.532-16.869-3.558v12.204c0 .95.391 1.859 1.081 2.512l16.142 15.28c1.334 1.263 3.422 1.263 4.756 0l6.057-5.734z" fill="#f6a96c"/></g><path d="m112.536 231.81h3.074v-11.082c0-13.559 11.031-24.59 24.59-24.59h60.659c13.559 0 24.59 11.031 24.59 24.59v11.082h3.075c4.6 0 8.882 1.383 12.458 3.75v-40.714c0-24.973-20.245-45.218-45.218-45.218h-50.469c-24.973 0-45.218 20.245-45.218 45.218v40.714c3.576-2.367 7.858-3.75 12.459-3.75z" fill="#596c76"/><g><path d="m134 194.846c0-24.973 20.245-45.218 45.218-45.218h-33.923c-24.973 0-45.218 20.245-45.218 45.218v40.714c3.576-2.367 7.858-3.751 12.459-3.751h3.074v-11.082c0-11.418 7.823-21.041 18.39-23.797z" fill="#465a61"/></g><g fill="#f6a96c"><path d="m115.61 258.029v-27.219h-3.074c-13.053 0-23.634 10.581-23.634 23.634v2.684c0 13.053 10.581 23.634 23.634 23.634h8.02c-3.166-6.934-4.946-14.627-4.946-22.733z"/><path d="m228.524 230.809h-3.075v27.219c0 8.106-1.779 15.799-4.945 22.732h8.02c13.053 0 23.634-10.581 23.634-23.634v-2.684c0-13.051-10.581-23.633-23.634-23.633z"/></g><g><path d="m170.53 313.948c-30.884 0-55.919-25.036-55.919-55.919v-37.301c0-14.133 11.457-25.59 25.59-25.59h60.659c14.133 0 25.59 11.457 25.59 25.59v37.301c-.001 30.883-25.037 55.919-55.92 55.919z" fill="#fed2a4"/></g><path d="m140 258.029v-37.301c0-14.133 11.457-25.59 25.59-25.59h-25.39c-14.133 0-25.59 11.457-25.59 25.59v37.301c0 30.883 25.036 55.919 55.919 55.919 4.369 0 8.614-.517 12.695-1.465-24.764-5.751-43.224-27.94-43.224-54.454z" fill="#ffbd86"/><g><path d="m172.044 306.086h-3.027c-8.284 0-15-6.716-15-15v-10.086c0-5.523 4.477-10 10-10h13.027c5.523 0 10 4.477 10 10v10.086c0 8.284-6.716 15-15 15z" fill="#fe93bb"/></g><path d="m168.973 291.086v-10.086c0-5.197 3.965-9.466 9.035-9.951-.318-.03-.639-.049-.965-.049h-13.027c-5.523 0-10 4.477-10 10v10.086c0 8.284 6.716 15 15 15h3.027c2.121 0 4.136-.446 5.965-1.239-5.315-2.308-9.035-7.598-9.035-13.761z" fill="#fe76a8"/><g><g><g><path d="m139.174 248.381c-4.143 0-7.5-3.358-7.5-7.5v-8.794c0-4.142 3.357-7.5 7.5-7.5s7.5 3.358 7.5 7.5v8.794c0 4.142-3.358 7.5-7.5 7.5z" fill="#d88a55"/></g><g><path d="m201.886 248.381c-4.143 0-7.5-3.358-7.5-7.5v-8.794c0-4.142 3.357-7.5 7.5-7.5s7.5 3.358 7.5 7.5v8.794c0 4.142-3.358 7.5-7.5 7.5z" fill="#d88a55"/></g></g><g><path d="m170.526 266.357c-1.706 0-3.42-.579-4.827-1.763l-8.225-6.926c-2.698-2.272-3.448-6.118-1.802-9.238l8.225-15.583c1.933-3.662 6.472-5.065 10.134-3.132 3.663 1.934 5.065 6.471 3.132 10.134l-5.403 10.237 3.602 3.033c3.168 2.668 3.574 7.399.906 10.568-1.484 1.763-3.606 2.67-5.742 2.67z" fill="#d88a55"/></g></g></g><path d="m290.355 75.725c-3.117 0-5.645 2.527-5.645 5.645v20.86h-3.927v-31.904c0-3.117-2.527-5.645-5.645-5.645s-5.645 2.527-5.645 5.645v31.904h-3.927v-35.585c0-3.117-2.527-5.645-5.645-5.645-3.117 0-5.645 2.527-5.645 5.645v35.585h-3.927v-26.75c0-3.117-2.527-5.645-5.645-5.645s-5.645 2.527-5.645 5.645v26.75 19.93l-9.589-9.589c-2.662-2.662-6.977-2.662-9.639 0s-2.662 6.977 0 9.639l27.695 27.695v113.095h37.058v-112.23c6.864-4.436 11.412-12.15 11.412-20.931v-48.469c.004-3.118-2.523-5.645-5.641-5.645z" fill="#fed2a4"/><g><path d="m231.834 122.211c-2.254-2.254-2.591-5.69-1.029-8.307l-1.13-1.13c-2.639-2.639-6.974-2.907-9.69-.348-2.811 2.648-2.862 7.074-.151 9.785l27.695 27.695v113.094h12v-108.952c0-2.652-1.054-5.196-2.929-7.071z" fill="#ffbd86"/></g><path d="m287.726 262h-44.94c-2.387 0-4.321 1.935-4.321 4.321v54.773h23.535c6.26 0 11.352 5.092 11.352 11.352v30.815c11.291-7.795 18.696-20.82 18.696-35.579v-61.361c-.001-2.386-1.935-4.321-4.322-4.321z" fill="#c4e2ff"/></g><g><path d="m93.204 439.622c44.384 44.696 105.83 72.378 173.796 72.378s129.462-27.682 173.846-72.378z" fill="#d88a55"/></g></g><g><g><path d="m195 19h-190c-2.761 0-5 2.239-5 5v107c0 2.761 2.239 5 5 5h82.929c1.326 0 2.598.527 3.536 1.464l34.414 34.414c1.89 1.89 5.121.551 5.121-2.121v-28.757c0-2.761 2.239-5 5-5h59c2.761 0 5-2.239 5-5v-107c0-2.761-2.239-5-5-5z" fill="#fe76a8"/></g><g><path d="m32 131v-107c0-2.761 2.239-5 5-5h-32c-2.761 0-5 2.239-5 5v107c0 2.761 2.239 5 5 5h32c-2.761 0-5-2.239-5-5z" fill="#fe5694"/></g><g><path d="m172 54.5h-144c-4.143 0-7.5-3.358-7.5-7.5s3.357-7.5 7.5-7.5h144c4.143 0 7.5 3.358 7.5 7.5s-3.357 7.5-7.5 7.5z" fill="#fff"/></g><g><path d="m172 83.5h-79.813c-4.143 0-7.5-3.358-7.5-7.5s3.357-7.5 7.5-7.5h79.813c4.143 0 7.5 3.358 7.5 7.5s-3.357 7.5-7.5 7.5z" fill="#fff"/></g><g><path d="m65.396 83.5h-37.396c-4.143 0-7.5-3.358-7.5-7.5s3.357-7.5 7.5-7.5h37.396c4.143 0 7.5 3.358 7.5 7.5s-3.358 7.5-7.5 7.5z" fill="#fff"/></g><g><path d="m117.86 112.5h-89.86c-4.143 0-7.5-3.358-7.5-7.5s3.357-7.5 7.5-7.5h89.86c4.143 0 7.5 3.358 7.5 7.5s-3.357 7.5-7.5 7.5z" fill="#fff"/></g></g></g></svg>