<svg id="Capa_1" enable-background="new 0 0 512 512" height="512" viewBox="0 0 512 512" width="512" xmlns="http://www.w3.org/2000/svg"><g><path d="m256 22c-135.31 0-245 109.69-245 245 0 120.639 87.195 220.909 202 241.234l1-.447v-119.523l-1.329.463c-4.48 1.561-9.158 2.353-13.902 2.353-23.298 0-42.253-18.955-42.253-42.253v-10.385c0-12.117 6.918-23.049 17.752-28.264v33.85c0 13.579 11.229 25.051 24.52 25.051l.446-.004c13.257-.251 24.034-11.24 24.034-24.495v-60.843c10.114-14.982 26.899-23.919 44.963-23.919h140.993c29.902 0 54.23 24.328 54.23 54.23v81.717h1c23.163-37.417 36.546-81.525 36.546-128.765 0-135.31-109.69-245-245-245z" fill="#97d729"/><path d="m256 85c-6.761 0-13.433.381-20.003 1.099 2.229 8.828 3.419 18.065 3.419 27.575 0 41.906-22.998 78.537-57.033 97.948.114.658.185 1.33.185 2.02v28.812c0 6.538-5.319 11.857-11.857 11.857h-87.939c-3.125 0-5.964-1.225-8.084-3.208-.454 5.239-.688 10.541-.688 15.897 0 100.516 81.484 182 182 182s182-81.484 182-182-81.484-182-182-182z" fill="#a2e62e"/><g><g><g><circle cx="126.741" cy="113.674" fill="#bbec6c" r="113.674"/></g><g><path d="m91.774 254.312v1.818c0 19.312 15.656 34.968 34.968 34.968 19.312 0 34.968-15.656 34.968-34.968v-1.818z" fill="#7a8c98"/></g><path d="m117 256.129v-1.818h-25.226v1.818c0 19.312 15.656 34.968 34.968 34.968 4.449 0 8.699-.84 12.613-2.354-13.077-5.062-22.355-17.75-22.355-32.614z" fill="#596c76"/><g><g><path d="m81.82 175.564c5.518 4.012 8.681 10.507 8.681 17.329v8.891h72.481v-8.997c0-6.766 3.144-13.206 8.62-17.179 19.153-13.897 31.61-36.46 31.61-61.933 0-42.596-34.828-77.058-77.561-76.463-42.063.586-76.01 35.585-75.372 77.648.38 24.96 12.719 47.019 31.541 60.704z" fill="#fff"/></g></g><path d="m107.549 175.564c-18.822-13.684-31.161-35.744-31.54-60.705-.578-38.046 27.144-70.309 63.571-76.558-4.523-.765-9.172-1.156-13.928-1.09-42.063.586-76.01 35.585-75.372 77.648.379 24.961 12.718 47.021 31.54 60.705 5.518 4.012 8.681 10.507 8.681 17.329v8.891h25.729v-8.891c0-6.822-3.163-13.318-8.681-17.329z" fill="#eaf6ff"/><g><circle cx="126.741" cy="113.674" fill="#fedf30" r="50.259"/></g><path d="m102 113.674c0-23.348 15.923-42.973 37.5-48.62-4.075-1.066-8.349-1.639-12.759-1.639-27.757 0-50.259 22.502-50.259 50.258 0 27.757 22.502 50.259 50.259 50.259 4.409 0 8.684-.572 12.759-1.639-21.577-5.646-37.5-25.271-37.5-48.619z" fill="#fed402"/><path d="m119.241 142.725v59.059h15v-59.059c12.925-3.339 22.5-15.097 22.5-29.051 0-16.542-13.458-30-30-30s-30 13.458-30 30c0 13.954 9.576 25.712 22.5 29.051zm7.5-44.051c8.271 0 15 6.729 15 15s-6.729 15-15 15-15-6.729-15-15 6.729-15 15-15z" fill="#fea613"/><g><path d="m170.711 255.311h-87.939c-7.101 0-12.857-5.756-12.857-12.857v-28.813c0-7.101 5.756-12.857 12.857-12.857h87.939c7.101 0 12.857 5.756 12.857 12.857v28.813c0 7.101-5.756 12.857-12.857 12.857z" fill="#9facba"/></g><g><path d="m103.347 242.454v-28.813c0-7.101 5.756-12.857 12.857-12.857h-33.432c-7.101 0-12.857 5.756-12.857 12.857v28.813c0 7.101 5.756 12.857 12.857 12.857h33.432c-7.101 0-12.857-5.756-12.857-12.857z" fill="#8d9ca8"/></g></g></g><g><path d="m464.097 116.568c0-26.668-21.495-48.306-48.104-48.557-1.823-25.16-22.799-45.011-48.425-45.011-15.36 0-29.045 7.138-37.945 18.269h21.515c8.673 0 15.729 7.056 15.729 15.729 0 .536-.028 1.065-.08 1.587 31.575 7.958 55.02 36.588 55.02 70.598v24.017c7.978 4.748 13.337 13.454 13.337 23.392v3.203c0 15.001-12.204 27.206-27.206 27.206h-7.36c-2.279 6.315-5.5 12.181-9.491 17.433 5.725 2.375 11.993 3.703 18.577 3.703 26.823 0 48.568-21.745 48.568-48.568 0-10.47-3.324-20.157-8.958-28.088 9.135-8.832 14.823-21.205 14.823-34.913z" fill="#465a61"/><path d="m328.451 56.379h20.552c6.485 0 12.769.864 18.757 2.462.067-.606.108-1.22.108-1.843 0-9.201-7.528-16.729-16.729-16.729h-24.824c-9.201 0-16.729 7.528-16.729 16.729 0 .623.041 1.237.108 1.843 5.988-1.598 12.273-2.462 18.757-2.462z" fill="#fe76a8"/><path d="m328.451 56.379h2.58c.331-8.915 7.705-16.11 16.698-16.11h-21.414c-9.201 0-16.729 7.528-16.729 16.729 0 .623.041 1.237.108 1.843 5.988-1.598 12.273-2.462 18.757-2.462z" fill="#fe5694"/><path d="m409.224 258.818h-140.993c-19.177 0-36.065 9.776-45.963 24.615v61.147c0 12.714-10.338 23.254-23.044 23.495l-.437.004c-12.749 0-23.52-11.014-23.52-24.051v-35.4c-11.608 4.916-19.752 16.413-19.752 29.813v10.385c0 23.888 19.365 43.253 43.253 43.253 4.988 0 9.774-.855 14.232-2.408v118.563c13.961 2.472 28.329 3.766 43 3.766 56.469 0 108.462-19.106 149.893-51.207l1-2.05v-57.743c0-2.206-1.794-4-4-4h-9.03c-3.784 0-6.862-3.079-6.862-6.863v-.958c0-3.784 3.078-6.862 6.862-6.862v-2c-3.784 0-6.862-3.079-6.862-6.863v-.958c0-3.784 3.078-6.863 6.862-6.863v-2c-3.784 0-6.862-3.079-6.862-6.862v-.958c0-3.784 3.078-6.863 6.862-6.863v-2c-3.784 0-6.862-3.079-6.862-6.863v-.958c0-3.784 3.078-6.862 6.862-6.862h33.03c7.72 0 14 6.28 14 14v79.941l1 .371c8.287-9.646 15.837-19.953 22.562-30.816v-81.717c-.001-30.501-24.728-55.228-55.231-55.228z" fill="#60b7ff"/><path d="m232.457 374.296c-2.656.513-5.398.784-8.204.784-8.171 0-15.812-2.268-22.331-6.206-.88.113-1.774.184-2.68.201-13.733.26-24.974-11.312-24.974-25.047v-34.944c-11.072 5.139-18.753 16.348-18.753 29.358v10.385c0 23.888 19.365 43.253 43.253 43.253 4.988 0 9.774-.855 14.232-2.408v118.563c8.356 1.479 16.86 2.527 25.485 3.138v-132.186c0-3.175-2.91-5.494-6.028-4.891z" fill="#26a6fe"/><g><path d="m316.308 303.908 20.081-12.86c1.425-.913 3.251-.913 4.676 0l18.986 12.16 22.03-13.093v-31.296l-14.405-15.071c-8.74 4.306-18.564 6.736-28.949 6.736-10.384 0-20.209-2.43-28.949-6.736l-14.405 15.071v32.647z" fill="#d8ecfe"/></g><g><path d="m316.308 303.908 4.692-3.005v-42.085l8.58-8.976c-7.012-.984-13.674-3.076-19.801-6.095l-14.405 15.071v32.647z" fill="#c4e2ff"/></g><path d="m338.728 250.483c-8.238 0-16.119-1.537-23.392-4.316v14.357c0 1.134.467 2.218 1.29 2.998l19.264 18.236c1.592 1.507 4.084 1.507 5.676 0l19.264-18.236c.824-.78 1.29-1.864 1.29-2.998v-14.356c-7.273 2.778-15.155 4.315-23.392 4.315z" fill="#ffbd86"/><g><path d="m333.506 263.521c-.824-.78-1.29-1.864-1.29-2.998v-10.371c-5.887-.586-11.549-1.948-16.881-3.986v14.357c0 1.134.467 2.218 1.29 2.998l19.264 18.236c1.592 1.507 4.084 1.507 5.676 0l5.603-5.304z" fill="#f6a96c"/></g><path d="m269.516 149.387h3.479l.043-.955c.954-21.163 18.307-37.74 39.505-37.74h52.37c21.198 0 38.551 16.577 39.505 37.74l.043.955h3.479c5.484 0 10.591 1.637 14.868 4.439v-24.643c0-40.761-33.043-73.804-73.804-73.804h-20.552c-40.761 0-73.804 33.043-73.804 73.804v24.644c4.276-2.803 9.383-4.44 14.868-4.44z" fill="#596c76"/><g><path d="m359.823 56.176c-3.532-.519-7.144-.797-10.82-.797h-20.552c-40.761 0-73.804 33.043-73.804 73.804v24.644c4.277-2.803 9.384-4.44 14.869-4.44h3.479l.043-.955c.733-16.26 11.152-29.804 25.553-35.21 6.536-29.637 30.87-52.584 61.232-57.046z" fill="#465a61"/></g><g><path d="m407.939 148.387h-3.523c.029.616.047 1.234.047 1.856v34.505c0 8.185-1.516 16.019-4.261 23.252h7.737c15.577 0 28.205-12.628 28.205-28.205v-3.203c0-15.577-12.628-28.205-28.205-28.205z" fill="#ffbd86"/><path d="m272.991 184.748v-34.505c0-.622.019-1.241.047-1.856h-3.523c-15.578 0-28.206 12.628-28.206 28.205v3.203c0 15.577 12.628 28.205 28.206 28.205h7.737c-2.745-7.234-4.261-15.068-4.261-23.252z" fill="#f6a96c"/></g><g><path d="m338.727 251.483c-36.857 0-66.736-29.879-66.736-66.736v-34.505c0-22.396 18.155-40.551 40.551-40.551h52.37c22.396 0 40.551 18.155 40.551 40.551v34.505c0 36.858-29.879 66.736-66.736 66.736z" fill="#fed2a4"/></g><path d="m297 184.747v-34.505c0-22.396 18.155-40.551 40.551-40.551h-25.008c-22.396 0-40.551 18.155-40.551 40.551v34.505c0 36.857 29.879 66.736 66.736 66.736 4.276 0 8.452-.419 12.504-1.187-30.878-5.856-54.232-32.967-54.232-65.549z" fill="#ffbd86"/><g><path d="m312.828 204c-2.4 0-4.266 2.129-3.911 4.503 2.174 14.512 14.692 25.641 29.81 25.641 15.118 0 27.636-11.129 29.81-25.641.356-2.374-1.511-4.503-3.911-4.503z" fill="#fe93bb"/></g><path d="m330.044 208.503c-.356-2.374 1.511-4.503 3.911-4.503h-21.126c-2.4 0-4.266 2.129-3.911 4.503 2.174 14.512 14.692 25.641 29.81 25.641 3.717 0 7.275-.676 10.563-1.906-10.084-3.774-17.608-12.791-19.247-23.735z" fill="#fe76a8"/><g><g><g><path d="m301.307 171.784c-4.143 0-7.5-3.358-7.5-7.5v-10.496c0-4.142 3.357-7.5 7.5-7.5s7.5 3.358 7.5 7.5v10.496c0 4.142-3.358 7.5-7.5 7.5z" fill="#d88a55"/></g><g><path d="m376.148 171.784c-4.143 0-7.5-3.358-7.5-7.5v-10.496c0-4.142 3.357-7.5 7.5-7.5s7.5 3.358 7.5 7.5v10.496c0 4.142-3.357 7.5-7.5 7.5z" fill="#d88a55"/></g></g><g><path d="m338.724 193.236c-1.706 0-3.42-.578-4.827-1.763l-9.815-8.265c-2.698-2.272-3.448-6.118-1.802-9.238l9.815-18.597c1.934-3.662 6.468-5.066 10.134-3.132 3.663 1.934 5.065 6.47 3.132 10.134l-6.994 13.252 5.192 4.373c3.168 2.668 3.574 7.399.906 10.568-1.484 1.761-3.606 2.668-5.741 2.668z" fill="#d88a55"/></g></g><g><path d="m220.994 119.201c-4.833.753-8.28 5.122-8.28 10.014v27.579c.197.732.312 1.498.312 2.291v20.987c0 4.873-3.965 8.837-8.838 8.837s-8.837-3.964-8.837-8.837h-2c0 4.873-3.965 8.837-8.838 8.837s-8.838-3.964-8.838-8.837h-2c0 4.873-3.964 8.837-8.837 8.837-2.979 0-5.613-1.486-7.215-3.75v13.962c0 10.721 5.052 20.257 12.903 26.371 2.392 1.863 3.741 4.763 3.741 7.794v110.741c0 13.736 11.241 25.308 24.974 25.047 13.312-.253 24.026-11.123 24.026-24.495v-117.175c-3.95 3.598-9.143 5.675-14.705 5.675-2.042 0-3.869-.971-5.013-2.664-1.145-1.695-1.362-3.755-.599-5.652 1.664-4.132 4.274-7.914 7.549-10.936l1.879-1.735h-18.029c-2.517 0-4.925-1.089-6.609-2.987-1.701-1.918-2.47-4.38-2.163-6.931.531-4.422 4.414-7.757 9.032-7.757l34.514.023c1.171.081 2.275.436 3.265 1.007v-66.53c.001-5.922-5.302-10.665-11.394-9.716z" fill="#ffbd86"/><path d="m190.879 344.028v-110.742c0-3.032-1.35-5.932-3.741-7.794-7.851-6.113-12.903-15.649-12.903-26.371v-19.049h-.56c0 4.873-3.964 8.837-8.837 8.837-2.979 0-5.613-1.486-7.215-3.75v13.962c0 10.721 5.052 20.257 12.903 26.371 2.392 1.863 3.741 4.763 3.741 7.794v110.741c0 13.736 11.241 25.308 24.974 25.047 2.778-.053 5.441-.574 7.919-1.477-9.481-3.517-16.281-12.888-16.281-23.569z" fill="#f6a96c"/><g><path d="m204.188 149.248c-5.411 0-9.838 4.427-9.838 9.838 0-5.411-4.427-9.838-9.838-9.838s-9.838 4.427-9.838 9.838c0-5.411-4.427-9.838-9.838-9.838s-9.836 4.427-9.836 9.837v20.987c0 5.411 4.427 9.838 9.838 9.838s9.838-4.427 9.838-9.838c0 5.411 4.427 9.838 9.838 9.838s9.838-4.427 9.838-9.838c0 5.411 4.427 9.838 9.838 9.838s9.838-4.427 9.838-9.838v-20.987c-.003-5.41-4.43-9.837-9.84-9.837z" fill="#ffe5c2"/></g><g><path d="m204.844 180.072v-20.987c0-3.483 1.84-6.551 4.591-8.3-1.522-.968-3.319-1.538-5.247-1.538-5.411 0-9.838 4.427-9.838 9.838v20.987c0 5.411 4.427 9.838 9.838 9.838 1.927 0 3.725-.57 5.247-1.538-2.751-1.749-4.591-4.817-4.591-8.3z" fill="#fed2a4"/></g><g><path d="m185.168 180.072v-20.987c0-3.483 1.84-6.551 4.591-8.3-1.522-.968-3.319-1.538-5.247-1.538-5.411 0-9.838 4.427-9.838 9.838v20.987c0 5.411 4.427 9.838 9.838 9.838 1.927 0 3.725-.57 5.247-1.538-2.751-1.749-4.591-4.817-4.591-8.3z" fill="#fed2a4"/></g><g><path d="m165.493 180.072v-20.987c0-3.483 1.84-6.551 4.591-8.3-1.522-.968-3.319-1.538-5.247-1.538-5.411 0-9.838 4.427-9.838 9.838v20.987c0 5.411 4.427 9.838 9.838 9.838 1.927 0 3.725-.57 5.247-1.538-2.751-1.749-4.591-4.817-4.591-8.3z" fill="#fed2a4"/></g><g><path d="m194.35 213.093h15.472c-3.398 3.136-6.068 7.001-7.798 11.297-1.866 4.634 1.543 9.689 6.539 9.689 8.605 0 16.481-4.829 20.384-12.497l7.478-14.692c2.978-5.803-.794-13.006-7.301-13.449l-34.514-.023c-5.019 0-9.427 3.654-10.025 8.638-.714 5.94 3.959 11.037 9.765 11.037z" fill="#ffe5c2"/></g><g><path d="m218.319 229.282c-4.996 0-8.405-5.055-6.539-9.69 1.235-3.066 2.948-5.911 5.062-8.43.956-1.138.168-2.868-1.318-2.868h-11.418c-5.806 0-10.479-5.097-9.765-11.037.169-1.405.649-2.698 1.351-3.839l-1.036-.001c-4.893-.003-9.266 3.443-10.02 8.278-.951 6.093 3.793 11.397 9.716 11.397h15.472c-3.398 3.136-6.068 7.001-7.798 11.297-1.866 4.634 1.543 9.689 6.539 9.689 5.464 0 10.63-1.953 14.676-5.338-1.599.353-3.246.542-4.922.542z" fill="#fed2a4"/></g></g></g><g><path d="m334.525 323.607c.927.551 1.986.842 3.065.842 1.078 0 2.138-.292 3.065-.842l72.179-42.899v-2.115c0-3.494-3.805-5.659-6.809-3.874l-68.436 40.674-68.436-40.674c-3.004-1.785-6.809.379-6.809 3.874v2.116z" fill="#fff"/><path d="m279 290.606v-3.1c0-2.486 1.928-4.291 4.121-4.487l-13.967-8.301c-3.004-1.785-6.809.379-6.809 3.874v2.116z" fill="#eaf6ff"/><path d="m387 390.137v-.958c0-3.784 3.078-6.862 6.862-6.862v-2c-3.784 0-6.862-3.079-6.862-6.863v-.958c0-3.784 3.078-6.863 6.862-6.863v-2c-3.784 0-6.862-3.079-6.862-6.862v-.958c0-3.784 3.078-6.863 6.862-6.863v-2c-3.784 0-6.862-3.079-6.862-6.863v-.958c0-3.784 3.078-6.862 6.862-6.862h27.217v-48.836c0-3.877-4.222-6.279-7.554-4.298l-73.38 43.613c-1.574.936-3.535.936-5.109 0l-73.38-43.613c-3.333-1.981-7.555.421-7.555 4.298v88.997c0 1.764.929 3.397 2.445 4.298l78.489 46.649c1.574.936 3.535.936 5.109 0l48.481-28.815c-1.011-1.193-1.625-2.737-1.625-4.423z" fill="#fe76a8"/><path d="m387 356.772v-.958c0-3.784 3.078-6.863 6.862-6.863v-2c-3.784 0-6.862-3.079-6.862-6.863v-.958c0-3.784 3.078-6.862 6.862-6.862h8.645c-1.643-8.666-9.593-13.449-19.172-10.883-10.77 2.886-19.5 13.955-19.5 24.725s8.73 17.161 19.5 14.275c1.374-.368 2.713-.872 4.006-1.489-.219-.669-.341-1.382-.341-2.124z" fill="#fe93bb"/><g><path d="m335.036 322.748-73.38-43.613c-3.333-1.981-7.555.421-7.555 4.298v88.997c0 1.764.929 3.397 2.445 4.298l78.489 46.649c.787.468 1.671.702 2.555.702v-100.629c-.883 0-1.767-.234-2.554-.702z" fill="#fe93bb"/></g><path d="m271 284.688-9.344-5.553c-3.333-1.981-7.555.421-7.555 4.298v88.997c0 1.764.929 3.397 2.445 4.298l14.453 8.59v-100.63z" fill="#fe76a8"/></g><g><path d="m393.863 331.269c-4.342 0-7.863 3.52-7.863 7.863v.958c0 4.342 3.52 7.863 7.863 7.863-4.342 0-7.863 3.52-7.863 7.863v.958c0 4.342 3.52 7.863 7.863 7.863-4.342 0-7.863 3.52-7.863 7.863v.958c0 4.342 3.52 7.863 7.863 7.863-4.342 0-7.863 3.52-7.863 7.863v.958c0 4.342 3.52 7.863 7.863 7.863h9.03c1.657 0 3 1.343 3 3v59.793c13.125-10.167 25.191-21.632 36-34.212v-80.313c0-8.284-6.716-15-15-15h-33.03z" fill="#fed2a4"/><path d="m422.893 446.324v-45.324c0-1.657-1.343-3-3-3h-9.03c-4.342 0-7.863-3.52-7.863-7.863v-.958c0-2.569 1.232-4.851 3.138-6.285 1.046-.787 1.046-2.367 0-3.155-1.906-1.435-3.138-3.716-3.138-6.285v-.958c0-2.569 1.232-4.851 3.138-6.285 1.046-.787 1.046-2.367 0-3.155-1.906-1.435-3.138-3.716-3.138-6.285v-.958c0-2.569 1.232-4.851 3.138-6.285 1.046-.787 1.046-2.367 0-3.155-1.906-1.435-3.138-3.716-3.138-6.285v-.958c0-4.342 3.52-7.863 7.863-7.863h-17c-4.342 0-7.863 3.52-7.863 7.863v.958c0 4.342 3.52 7.863 7.863 7.863-4.342 0-7.863 3.52-7.863 7.863v.958c0 4.342 3.52 7.863 7.863 7.863-4.342 0-7.863 3.52-7.863 7.863v.958c0 4.342 3.52 7.863 7.863 7.863-4.342 0-7.863 3.52-7.863 7.863v.958c0 4.342 3.52 7.863 7.863 7.863h9.03c1.657 0 3 1.343 3 3v59.793c5.89-4.565 11.554-9.403 17-14.472z" fill="#ffbd86"/></g></g></svg>