<svg id="Layer_1" enable-background="new 0 0 130 130" height="512" viewBox="0 0 130 130" width="512" xmlns="http://www.w3.org/2000/svg"><g><circle cx="65" cy="65" fill="#41c19e" r="64"/><path d="m98.7 61.1c2.5-2.5 1.1-6.8-2.4-7.3l-16.8-2.4c-1.4-.2-2.6-1.1-3.2-2.3l-7.5-15.2c-1.6-3.2-6.1-3.2-7.6 0l-7.5 15.2c-.6 1.3-1.8 2.1-3.2 2.3l-16.8 2.4c-3.5.5-4.9 4.8-2.4 7.3l12.1 11.9c1 1 1.5 2.4 1.2 3.8l-2.9 16.7c-.5 3.5 3.2 6.1 6.3 4.5l15-7.9c1.2-.7 2.7-.7 4 0l15 7.9c3.1 1.6 6.8-1 6.2-4.5l-2.9-16.7c-.2-1.4.2-2.8 1.2-3.8z" fill="#fff"/></g></svg>