<?xml version="1.0"?>
<svg xmlns="http://www.w3.org/2000/svg" xmlns:xlink="http://www.w3.org/1999/xlink" xmlns:svgjs="http://svgjs.com/svgjs" version="1.1" width="512" height="512" x="0" y="0" viewBox="0 0 512 512" style="enable-background:new 0 0 512 512" xml:space="preserve"><g><path xmlns="http://www.w3.org/2000/svg" d="m496 384h-32v-268a28.031 28.031 0 0 0 -28-28h-164v-24a8 8 0 0 0 -8-8h-160a8 8 0 0 0 -8 8v24h-20a28.031 28.031 0 0 0 -28 28v268h-32a8 8 0 0 0 -8 8v36a28.031 28.031 0 0 0 28 28h440a28.031 28.031 0 0 0 28-28v-36a8 8 0 0 0 -8-8zm-384-312h144v112h-16a8 8 0 0 0 -8 8v28.69l-34.34-34.35a8.008 8.008 0 0 0 -5.66-2.34h-80zm-8 128h84.69l45.65 45.66a8 8 0 0 0 13.66-5.66v-40h16a8 8 0 0 0 8-8v-64h152v232h-16v-40a48.051 48.051 0 0 0 -48-48h-8v-6.46a48.012 48.012 0 0 0 24-41.54v-32c0-.23-.01-.45-.03-.68a49.189 49.189 0 0 0 -13.93-32.66 47.054 47.054 0 0 0 -34.04-14.66 48.051 48.051 0 0 0 -48 48v32a48.012 48.012 0 0 0 24 41.54v6.46h-8a48.051 48.051 0 0 0 -48 48v40h-160v-232h8v64a8 8 0 0 0 8 8zm264 120a8 8 0 0 0 -8 8v32h-64v-32a8 8 0 0 0 -16 0v32h-16v-40a32.03 32.03 0 0 1 32-32h9.38a23.99 23.99 0 0 0 45.24 0h9.38a32.03 32.03 0 0 1 32 32v40h-16v-32a8 8 0 0 0 -8-8zm-65.65-111.72c12.94 0 32.94-2.34 57.65-12.79v28.51a32 32 0 0 1 -64 0v-15.92c1.88.12 3.99.2 6.35.2zm-6.35-16.24v-.04a32.03 32.03 0 0 1 32-32c12.65 0 23.86 8.04 29.01 19.34-19.84 8.84-36.12 11.77-46.71 12.62a92.371 92.371 0 0 1 -14.3.08zm40 79.96v8a8 8 0 0 1 -16 0v-8zm-272-156a12.01 12.01 0 0 1 12-12h20v8h-16a8 8 0 0 0 -8 8v248a8 8 0 0 0 8 8h352a8 8 0 0 0 8-8v-248a8 8 0 0 0 -8-8h-160v-8h164a12.01 12.01 0 0 1 12 12v268h-384zm229.75 284-4 16h-67.5l-4-16zm194.25 28a12.01 12.01 0 0 1 -12 12h-440a12.01 12.01 0 0 1 -12-12v-28h177.75l6.49 25.94a8 8 0 0 0 7.76 6.06h80a8 8 0 0 0 7.76-6.06l6.49-25.94h177.75z" fill="#ffffff" data-original="#000000" style=""/></g></svg>
