<svg id="Capa_1" enable-background="new 0 0 512 512" height="512" viewBox="0 0 512 512" width="512" xmlns="http://www.w3.org/2000/svg"><g><path d="m401.458 208.856c0-79.711-64.116-144.446-143.59-145.446-80.414-1.012-146.877 64.2-147.324 144.618-.253 45.458 20.35 86.108 52.797 112.949 20.05 16.586 31.745 43.166 31.745 69.187l16.244 10.153 89.848.006 15.736-10.151c0-26.16 11.933-52.716 32.046-69.445 32.076-26.678 52.498-66.887 52.498-111.871z" fill="#fdf172"/><path d="m245.848 390.162h-50.761c0-26.02-11.695-52.599-31.746-69.188-32.447-26.843-53.046-67.492-52.792-112.944.447-80.416 66.904-145.634 147.32-144.619 8.051.102 15.939.853 23.614 2.213-67.695 11.99-119.777 71.249-120.173 142.406-.254 45.452 20.345 86.101 52.792 112.944 20.051 16.589 31.746 43.168 31.746 69.188z" fill="#fde800"/><g><g><path d="m256 41.755c-4.205 0-7.614-3.409-7.614-7.614v-26.527c0-4.205 3.409-7.614 7.614-7.614 4.206 0 7.614 3.409 7.614 7.614v26.527c0 4.206-3.408 7.614-7.614 7.614z" fill="#fdf172"/></g><g><path d="m132.532 92.897c-1.949 0-3.897-.744-5.384-2.23l-18.757-18.757c-2.974-2.974-2.974-7.795 0-10.769 2.973-2.972 7.795-2.972 10.768 0l18.757 18.757c2.974 2.974 2.974 7.795 0 10.769-1.487 1.487-3.435 2.23-5.384 2.23z" fill="#fdf172"/></g><g><path d="m398.225 358.592c-1.949 0-3.897-.744-5.384-2.231l-18.757-18.758c-2.973-2.973-2.973-7.795.001-10.768 2.973-2.973 7.795-2.972 10.768.001l18.757 18.758c2.973 2.973 2.973 7.795-.001 10.768-1.486 1.486-3.436 2.23-5.384 2.23z" fill="#fdf172"/></g><g><path d="m81.39 216.365h-26.527c-4.205 0-7.614-3.409-7.614-7.614 0-4.206 3.409-7.614 7.614-7.614h26.527c4.205 0 7.614 3.409 7.614 7.614 0 4.206-3.409 7.614-7.614 7.614z" fill="#fdf172"/></g><g><path d="m457.137 216.365h-26.527c-4.206 0-7.614-3.409-7.614-7.614 0-4.206 3.409-7.614 7.614-7.614h26.527c4.206 0 7.614 3.409 7.614 7.614 0 4.206-3.408 7.614-7.614 7.614z" fill="#fdf172"/></g><g><path d="m113.775 358.592c-1.949 0-3.897-.744-5.384-2.23-2.974-2.974-2.974-7.795 0-10.769l18.757-18.758c2.973-2.972 7.795-2.972 10.768 0 2.974 2.974 2.974 7.795 0 10.769l-18.757 18.758c-1.487 1.486-3.436 2.23-5.384 2.23z" fill="#fdf172"/></g><g><path d="m379.468 92.897c-1.948 0-3.897-.744-5.384-2.23-2.973-2.974-2.973-7.795 0-10.769l18.757-18.757c2.974-2.972 7.795-2.972 10.769 0 2.973 2.974 2.973 7.795 0 10.769l-18.757 18.757c-1.487 1.487-3.436 2.23-5.385 2.23z" fill="#fdf172"/></g></g><g fill="#eefaff"><path d="m223.005 188.447c-11.214 0-20.305 9.091-20.305 20.305s9.091 20.305 20.305 20.305c1.756 0 3.451-.246 5.076-.666v161.782c0 4.206 3.409 7.614 7.614 7.614s7.614-3.409 7.614-7.614c0 0-.013-181.944-.039-182.2-.412-10.851-9.314-19.526-20.265-19.526z"/><path d="m288.995 188.447c-10.951 0-19.852 8.676-20.265 19.525-.026.256-.039 182.195-.039 182.195 0 4.206 3.409 7.614 7.614 7.614 4.206 0 7.614-3.409 7.614-7.614v-161.776c1.625.419 3.32.666 5.076.666 11.214 0 20.305-9.091 20.305-20.305s-9.091-20.305-20.305-20.305z"/></g><path d="m274.381 512h-36.761c-3.866 0-7-3.134-7-7v-43.761h50.761v43.761c0 3.866-3.134 7-7 7z" fill="#c9ebfa"/><path d="m316.91 390.17v71.08c0 5.61-4.54 10.15-10.15 10.15h-101.52c-5.61 0-10.15-4.54-10.15-10.15v-71.08z" fill="#eefaff"/><path d="m195.087 390.172v71.077c0 5.607 4.545 10.152 10.152 10.152h40.609v-81.229z" fill="#dff1f7"/><g><path d="m195.09 423.18h121.82v15.23h-121.82z" fill="#c9ebfa"/></g><g><path d="m195.09 423.18h50.758v15.23h-50.758z" fill="#a0ddf3"/></g></g></svg>